<mxfile host="app.diagrams.net" modified="2023-06-30T11:27:06.412Z" agent="5.0 (Macintosh; Intel Mac OS X 10_15_7) AppleWebKit/537.36 (KHTML, like Gecko) Chrome/114.0.0.0 Safari/537.36" version="20.8.5" etag="UaBcOThURiuc_lH0g_hk" type="github">
  <diagram id="JaHQ51rUl5n7oyP_Nvp8" name="Page-1">
    <mxGraphModel dx="995" dy="734" grid="1" gridSize="10" guides="1" tooltips="1" connect="1" arrows="1" fold="1" page="1" pageScale="1" pageWidth="827" pageHeight="1169" math="0" shadow="0">
      <root>
        <mxCell id="0" />
        <mxCell id="1" parent="0" />
        <mxCell id="nJUPerPMOQc4MbRavXT1-14" value="" style="edgeStyle=orthogonalEdgeStyle;rounded=0;orthogonalLoop=1;jettySize=auto;html=1;startArrow=none;" edge="1" parent="1" source="nJUPerPMOQc4MbRavXT1-8" target="nJUPerPMOQc4MbRavXT1-9">
          <mxGeometry relative="1" as="geometry" />
        </mxCell>
        <mxCell id="nJUPerPMOQc4MbRavXT1-2" value="" style="shape=parallelogram;perimeter=parallelogramPerimeter;whiteSpace=wrap;html=1;fixedSize=1;fillColor=#60a917;fontColor=#ffffff;strokeColor=#2D7600;" vertex="1" parent="1">
          <mxGeometry x="200" y="250" width="160" height="20" as="geometry" />
        </mxCell>
        <mxCell id="nJUPerPMOQc4MbRavXT1-34" value="" style="edgeStyle=orthogonalEdgeStyle;rounded=0;orthogonalLoop=1;jettySize=auto;html=1;" edge="1" parent="1" source="nJUPerPMOQc4MbRavXT1-9" target="nJUPerPMOQc4MbRavXT1-13">
          <mxGeometry relative="1" as="geometry" />
        </mxCell>
        <mxCell id="nJUPerPMOQc4MbRavXT1-9" value="" style="shape=parallelogram;perimeter=parallelogramPerimeter;whiteSpace=wrap;html=1;fixedSize=1;fillColor=#60a917;fontColor=#ffffff;strokeColor=#2D7600;" vertex="1" parent="1">
          <mxGeometry x="240" y="330" width="80" height="10" as="geometry" />
        </mxCell>
        <mxCell id="nJUPerPMOQc4MbRavXT1-13" value="" style="shape=parallelogram;perimeter=parallelogramPerimeter;whiteSpace=wrap;html=1;fixedSize=1;fillColor=#60a917;fontColor=#ffffff;strokeColor=#2D7600;" vertex="1" parent="1">
          <mxGeometry x="248" y="390" width="60" height="10" as="geometry" />
        </mxCell>
        <mxCell id="nJUPerPMOQc4MbRavXT1-15" value="" style="edgeStyle=orthogonalEdgeStyle;rounded=0;orthogonalLoop=1;jettySize=auto;html=1;endArrow=none;" edge="1" parent="1" source="nJUPerPMOQc4MbRavXT1-2" target="nJUPerPMOQc4MbRavXT1-8">
          <mxGeometry relative="1" as="geometry">
            <mxPoint x="280" y="270" as="sourcePoint" />
            <mxPoint x="270" y="360" as="targetPoint" />
          </mxGeometry>
        </mxCell>
        <mxCell id="nJUPerPMOQc4MbRavXT1-8" value="" style="shape=parallelogram;perimeter=parallelogramPerimeter;whiteSpace=wrap;html=1;fixedSize=1;fillColor=#60a917;strokeColor=#2D7600;fontColor=#ffffff;" vertex="1" parent="1">
          <mxGeometry x="225" y="290" width="110" height="20" as="geometry" />
        </mxCell>
        <mxCell id="nJUPerPMOQc4MbRavXT1-18" style="edgeStyle=orthogonalEdgeStyle;rounded=0;orthogonalLoop=1;jettySize=auto;html=1;exitX=0.5;exitY=1;exitDx=0;exitDy=0;" edge="1" parent="1" source="nJUPerPMOQc4MbRavXT1-13" target="nJUPerPMOQc4MbRavXT1-13">
          <mxGeometry relative="1" as="geometry" />
        </mxCell>
        <mxCell id="nJUPerPMOQc4MbRavXT1-23" style="edgeStyle=orthogonalEdgeStyle;rounded=0;orthogonalLoop=1;jettySize=auto;html=1;exitX=0.5;exitY=1;exitDx=0;exitDy=0;" edge="1" parent="1" source="nJUPerPMOQc4MbRavXT1-13" target="nJUPerPMOQc4MbRavXT1-13">
          <mxGeometry relative="1" as="geometry" />
        </mxCell>
        <mxCell id="nJUPerPMOQc4MbRavXT1-10" value="" style="shape=parallelogram;perimeter=parallelogramPerimeter;whiteSpace=wrap;html=1;fixedSize=1;fillColor=#60a917;fontColor=#ffffff;strokeColor=#2D7600;" vertex="1" parent="1">
          <mxGeometry x="245" y="360" width="65" height="10" as="geometry" />
        </mxCell>
        <mxCell id="nJUPerPMOQc4MbRavXT1-36" value="" style="shape=parallelogram;perimeter=parallelogramPerimeter;whiteSpace=wrap;html=1;fixedSize=1;fillColor=#ffcc99;strokeColor=#36393d;" vertex="1" parent="1">
          <mxGeometry x="350" y="330" width="80" height="10" as="geometry" />
        </mxCell>
        <mxCell id="nJUPerPMOQc4MbRavXT1-39" value="" style="shape=parallelogram;perimeter=parallelogramPerimeter;whiteSpace=wrap;html=1;fixedSize=1;fillColor=#ffcc99;strokeColor=#36393d;" vertex="1" parent="1">
          <mxGeometry x="349" y="360" width="65" height="10" as="geometry" />
        </mxCell>
        <mxCell id="nJUPerPMOQc4MbRavXT1-40" value="" style="shape=parallelogram;perimeter=parallelogramPerimeter;whiteSpace=wrap;html=1;fixedSize=1;fillColor=#ffcc99;strokeColor=#36393d;" vertex="1" parent="1">
          <mxGeometry x="345" y="390" width="60" height="10" as="geometry" />
        </mxCell>
        <mxCell id="nJUPerPMOQc4MbRavXT1-50" value="" style="endArrow=classic;html=1;rounded=0;" edge="1" parent="1">
          <mxGeometry width="50" height="50" relative="1" as="geometry">
            <mxPoint x="381" y="370" as="sourcePoint" />
            <mxPoint x="381" y="390" as="targetPoint" />
          </mxGeometry>
        </mxCell>
        <mxCell id="nJUPerPMOQc4MbRavXT1-53" value="" style="endArrow=classic;html=1;rounded=0;" edge="1" parent="1">
          <mxGeometry width="50" height="50" relative="1" as="geometry">
            <mxPoint x="389.5" y="390" as="sourcePoint" />
            <mxPoint x="390" y="370" as="targetPoint" />
          </mxGeometry>
        </mxCell>
        <mxCell id="nJUPerPMOQc4MbRavXT1-54" value="" style="endArrow=classic;html=1;rounded=0;" edge="1" parent="1">
          <mxGeometry width="50" height="50" relative="1" as="geometry">
            <mxPoint x="381" y="360" as="sourcePoint" />
            <mxPoint x="380" y="340" as="targetPoint" />
          </mxGeometry>
        </mxCell>
        <mxCell id="nJUPerPMOQc4MbRavXT1-55" value="" style="endArrow=classic;html=1;rounded=0;" edge="1" parent="1">
          <mxGeometry width="50" height="50" relative="1" as="geometry">
            <mxPoint x="389.5" y="340" as="sourcePoint" />
            <mxPoint x="389.5" y="360" as="targetPoint" />
          </mxGeometry>
        </mxCell>
        <mxCell id="nJUPerPMOQc4MbRavXT1-56" value="" style="endArrow=classic;html=1;rounded=0;exitX=1;exitY=0.75;exitDx=0;exitDy=0;" edge="1" parent="1" source="nJUPerPMOQc4MbRavXT1-9">
          <mxGeometry width="50" height="50" relative="1" as="geometry">
            <mxPoint x="320" y="339" as="sourcePoint" />
            <mxPoint x="350" y="337" as="targetPoint" />
          </mxGeometry>
        </mxCell>
        <mxCell id="nJUPerPMOQc4MbRavXT1-57" value="" style="endArrow=classic;html=1;rounded=0;" edge="1" parent="1">
          <mxGeometry width="50" height="50" relative="1" as="geometry">
            <mxPoint x="300" y="364.5" as="sourcePoint" />
            <mxPoint x="350" y="364.5" as="targetPoint" />
          </mxGeometry>
        </mxCell>
        <mxCell id="nJUPerPMOQc4MbRavXT1-58" value="" style="endArrow=classic;html=1;rounded=0;" edge="1" parent="1">
          <mxGeometry width="50" height="50" relative="1" as="geometry">
            <mxPoint x="300" y="394.5" as="sourcePoint" />
            <mxPoint x="350" y="394.5" as="targetPoint" />
          </mxGeometry>
        </mxCell>
      </root>
    </mxGraphModel>
  </diagram>
</mxfile>
